{"title":"Cars 2 [2011] Dvdrip - PRESTiGE","uid":6761609,"size":743752410,"categoryP":"video","categoryS":"movies","magnet":"?xt=urn:btih:ed7bf740a2933ea67caeae599c5de21cd9a83889&amp;dn=Cars+2+%5B2011%5D+Dvdrip+-+PRESTiGE&amp;tr=udp%3A%2F%2Ftracker.openbittorrent.com%3A80&amp;tr=udp%3A%2F%2Fopen.demonii.com%3A1337&amp;tr=udp%3A%2F%2Ftracker.coppersurfer.tk%3A6969&amp;tr=udp%3A%2F%2Fexodus.desync.com%3A6969","seeders":0,"leechers":1,"uploader":"sceneline","files":5,"time":1319226095,"description":"- &lt;a href=&quot;\nhttp://www.Speed.Cd&quot; rel=&quot;nofollow&quot; target=&quot;_NEW&quot;&gt;\nhttp://www.Speed.Cd&lt;/a&gt;      fast  and The Hottest Private Tracker on the net\n\nPlease Seed back to make the speed Faster!!!\n\n------------------nfo--------------------------\n-[align=center][img]http://www.pix2links.com/image/ciWeE.jpg[/img]\n\n[IMG]http://i796.photobucket.com/albums/yy246/jungledave7080/twisted/PresInfoRaw-1.png[/IMG]\n\nComplete name : Cars 2 [2011] Dvdrip - PRESTiGE.avi \nFormat : AVI \nFormat/Info : Audio Video Interleave \nFile size : 701 MiB \nDuration : 1h 45mn \nOverall bit rate : 927 Kbps \nIMDB: http://www.imdb.com/title/tt1216475/\nEncoder:[color=#6600CC][b][i]Twisted[/i][/b][/color]\nSource: Cars.2.DVDR-TGP\n\n[IMG]http://i796.photobucket.com/albums/yy246/jungledave7080/twisted/PresVidRaw-1.png[/IMG]\n\nID : 0 \nFormat : MPEG-4 Visual \nFormat profile : Advanced Simple@L5 \nFormat settings, BVOP : 2 \nFormat settings, QPel : No \nFormat settings, GMC : No warppoints \nFormat settings, Matrix : Default (H.263) \nMuxing mode : Packed bitstream \nCodec ID : XVID \nCodec ID/Hint : XviD \nDuration : 1h 45mn \nBit rate : 789 Kbps \nWidth : 720 pixels \nHeight : 304 pixels \nDisplay aspect ratio : 2.35:1 \nFrame rate : 23.976 fps \nColor space : YUV \nChroma subsampling : 4:2:0 \nBit depth : 8 bits \nScan type : Progressive \nCompression mode : Lossy \nBits/(Pixel*Frame) : 0.150 \nStream size : 597 MiB (85%) \nWriting library : XviD 63 \n\n\n[IMG]http://i796.photobucket.com/albums/yy246/jungledave7080/twisted/PresAudRaw-1.png[/IMG]\n\nID : 1 \nFormat : MPEG Audio \nFormat version : Version 1 \nFormat profile : Layer 3 \nMode : Joint stereo \nMode extension : MS Stereo \nCodec ID : 55 \nCodec ID/Hint : MP3 \nDuration : 1h 45mn \nBit rate mode : Constant \nBit rate : 128 Kbps \nChannel(s) : 2 channels \nSampling rate : 44.1 KHz \nCompression mode : Lossy \nDelay relative to video : 26ms \nStream size : 96.8 MiB (14%) \nAlignment : Split accross interleaves \nInterleave, duration : 42 ms (1.00 video frame) \nInterleave, preload duration : 500 ms \n\n\n[IMG]http://i796.photobucket.com/albums/yy246/jungledave7080/twisted/PresScrnRaw-1.png[/IMG]\n\n[img]http://www.pix2links.com/image/U6IpY.png[/img]\n[img]http://www.pix2links.com/image/NJxj.png[/img]\n[img]http://www.pix2links.com/image/5rLoA.png[/img]\n[img]http://www.pix2links.com/image/yFAQd.png[/img]\n\n\n[IMG]http://i796.photobucket.com/albums/yy246/jungledave7080/twisted/PresNoteRaw-1.png[/IMG]\n\n[color=#FF0000][b]WE DONT RELEASE EVERYTHING TO OTHERS SITES YOU WANT MORE OF OUR STUFF COME FIND US AT .......[/b][/color]\n[color=#FF0000][b]WE ARE LOOKING FOR SUPPLIERS BLURAY CAM R5 PRE RETAIL DVD GOT SOMETHING WE MIGHT LIKE WHEN YOU FIND US TELL US.......[/b][/color]\n\n\nGreets going out to\n\n| Bigguy | DiLLoN | Thorn | Flawl3ss | Imagine | CTFX | BMB | akosipalos | HiTM4N | PA4U2C |\n\n\n[img]http://i.imgur.com/YvsDx.png[/img][/align]","torrent":{"xt":"urn:btih:ed7bf740a2933ea67caeae599c5de21cd9a83889","amp;dn":"Cars+2+%5B2011%5D+Dvdrip+-+PRESTiGE","amp;tr":["udp%3A%2F%2Ftracker.openbittorrent.com%3A80","udp%3A%2F%2Fopen.demonii.com%3A1337","udp%3A%2F%2Ftracker.coppersurfer.tk%3A6969","udp%3A%2F%2Fexodus.desync.com%3A6969"],"infoHash":"ed7bf740a2933ea67caeae599c5de21cd9a83889","infoHashBuffer":{"type":"Buffer","data":[237,123,247,64,162,147,62,166,124,174,174,89,156,93,226,28,217,168,56,137]},"announce":[],"urlList":[]}}